<svg height="250" viewBox="0 0 300 250" width="300" xmlns="http://www.w3.org/2000/svg">
<path d="M50,200 C100,50,200,50,250,200" fill="none" stroke="blue" stroke-width="2"/>
<path d="M45.93942,213.41495 C94.18624,46.61989,204.41557,47.140903,252.82361,209.1788" fill="none" stroke="grey" stroke-dasharray="5,5" stroke-width="1"/>
<g fill="red">
<circle cx="50" cy="200" r="2"/>
<circle cx="66.4" cy="159.5" r="2"/>
<circle cx="75.5375" cy="142.625" r="2"/>
<circle cx="105.79999999999998" cy="105.49999999999999" r="2"/>
<circle cx="194.2" cy="105.49999999999999" r="2"/>
<circle cx="224.46249999999998" cy="142.625" r="2"/>
<circle cx="250" cy="200" r="2"/>
</g>
<g>
<circle cx="50.043509479351094" cy="200.0776142359946" fill="none" r="2" stroke="green" stroke-width="1"/>
<line stroke="green" stroke-dasharray="2,2" stroke-width="1" x1="50" x2="50.043509479351094" y1="200" y2="200.0776142359946"/>
<circle cx="66.34129146559577" cy="159.41816293302662" fill="none" r="2" stroke="green" stroke-width="1"/>
<line stroke="green" stroke-dasharray="2,2" stroke-width="1" x1="66.4" x2="66.34129146559577" y1="159.5" y2="159.41816293302662"/>
<circle cx="75.48147022309632" cy="142.54227234618622" fill="none" r="2" stroke="green" stroke-width="1"/>
<line stroke="green" stroke-dasharray="2,2" stroke-width="1" x1="75.5375" x2="75.48147022309632" y1="142.625" y2="142.54227234618622"/>
<circle cx="105.90540714376557" cy="105.5907109020245" fill="none" r="2" stroke="green" stroke-width="1"/>
<line stroke="green" stroke-dasharray="2,2" stroke-width="1" x1="105.79999999999998" x2="105.90540714376557" y1="105.49999999999999" y2="105.5907109020245"/>
<circle cx="194.1005513487948" cy="105.57712753182065" fill="none" r="2" stroke="green" stroke-width="1"/>
<line stroke="green" stroke-dasharray="2,2" stroke-width="1" x1="194.2" x2="194.1005513487948" y1="105.49999999999999" y2="105.57712753182065"/>
<circle cx="224.5501860189551" cy="142.49001192538904" fill="none" r="2" stroke="green" stroke-width="1"/>
<line stroke="green" stroke-dasharray="2,2" stroke-width="1" x1="224.46249999999998" x2="224.5501860189551" y1="142.625" y2="142.49001192538904"/>
<circle cx="249.97758432043992" cy="200.05410012555734" fill="none" r="2" stroke="green" stroke-width="1"/>
<line stroke="green" stroke-dasharray="2,2" stroke-width="1" x1="250" x2="249.97758432043992" y1="200" y2="200.05410012555734"/>
</g>
<g>
<path d="M10,10 L30,10" stroke="blue" stroke-width="2"/>
<text font-size="10" x="35" y="14">
Original Curve
</text>
<path d="M10,25 L30,25" stroke="grey" stroke-dasharray="5,5" stroke-width="1"/>
<text font-size="10" x="35" y="29">
Fitted Curve
</text>
<circle cx="20" cy="40" fill="red" r="2"/>
<text font-size="10" x="35" y="44">
Sample Points
</text>
<circle cx="20" cy="55" fill="none" r="2" stroke="green" stroke-width="1"/>
<text font-size="10" x="35" y="59">
Nearest Points
</text>
</g>
</svg>