<svg height="250" viewBox="0 0 300 250" width="300" xmlns="http://www.w3.org/2000/svg">
<path d="M51.261623,203.01604 C57.853737,72.51704,242.76161,64.56915,249.76099,202.03313" fill="none" stroke="green" stroke-dasharray="5,5" stroke-width="1"/>
<path d="M55.90238,199.03572 C6.3389883,134.88393,225.17738,27.821428,252.06757,201.84822" fill="none" stroke="purple" stroke-dasharray="3,3" stroke-width="1"/>
<path d="M53.331974,201.59464 C29.740438,103.243546,242.5903,46.131268,250.21121,202.33809" fill="none" stroke="orange" stroke-dasharray="2,2" stroke-width="1"/>
<path d="M50,200 C100,50,200,50,250,200" fill="none" stroke="red" stroke-dasharray="1,1" stroke-width="1"/>
<path d="M50,200 C100,50,200,50,250,200" fill="none" stroke="blue" stroke-width="2"/>
<g fill="black">
<circle cx="50" cy="200" r="2"/>
<circle cx="66.4" cy="159.5" r="2"/>
<circle cx="75.5375" cy="142.625" r="2"/>
<circle cx="105.79999999999998" cy="105.49999999999999" r="2"/>
<circle cx="194.2" cy="105.49999999999999" r="2"/>
<circle cx="224.46249999999998" cy="142.625" r="2"/>
<circle cx="250" cy="200" r="2"/>
</g>
<g>
<path d="M10,10 L30,10" stroke="blue" stroke-width="2"/>
<text font-size="10" x="35" y="14">
Original Curve
</text>
<path d="M10,25 L30,25" stroke="green" stroke-dasharray="5,5" stroke-width="1"/>
<text font-size="10" x="35" y="29">
ChordLength
</text>
<path d="M10,40 L30,40" stroke="purple" stroke-dasharray="3,3" stroke-width="1"/>
<text font-size="10" x="35" y="44">
Uniform
</text>
<path d="M10,55 L30,55" stroke="orange" stroke-dasharray="2,2" stroke-width="1"/>
<text font-size="10" x="35" y="59">
Centripetal
</text>
<path d="M10,70 L30,70" stroke="red" stroke-dasharray="1,1" stroke-width="1"/>
<text font-size="10" x="35" y="74">
Ground Truth
</text>
<circle cx="20" cy="85" fill="black" r="2"/>
<text font-size="10" x="35" y="89">
Sample Points
</text>
</g>
</svg>