<?xml version="1.0" encoding="UTF-8"?>
<!-- <svg width="180px" height="59px" viewBox="0 0 180 59" version="1.1" xmlns="http://www.w3.org/2000/svg" xmlns:xlink="http://www.w3.org/1999/xlink">
    <g id="logo" stroke="none" stroke-width="1" fill="none" fill-rule="evenodd" transform="translate(-60.000000, -108.000000)">
        <path d="M60,165.703349 L60,111.229665 L80.7491762,111.229665 C95.7007884,111.229665 102.642608,117.857932 102.642608,129.438351 L102.642608,129.743099 C102.642608,141.171145 94.937951,147.342289 81.4357298,147.342289 L75.5618821,147.342289 L75.5618821,165.703349 L60,165.703349 Z M75.5618821,136.676113 L80.0626225,136.676113 C85.0973491,136.676113 87.7672799,134.314317 87.7672799,129.819286 L87.7672799,129.514538 C87.7672799,124.867133 85.0210654,122.962459 80.1389063,122.962459 L75.5618821,122.962459 L75.5618821,136.676113 Z M108.714844,165.703349 L108.714844,125.890197 L122.413041,125.890197 L122.413041,165.703349 L108.714844,165.703349 Z M115.525679,122.083271 C111.24021,122.083271 108.026108,119.114365 108.026108,115.079699 C108.026108,111.045032 111.24021,108 115.525679,108 C119.811149,108 123.101777,111.045032 123.101777,115.079699 C123.101777,119.114365 119.811149,122.083271 115.525679,122.083271 Z M143.535193,166.564593 C134.574444,166.564593 129.5625,162.21959 129.5625,152.843532 L129.5625,135.08238 L129.5625,125.782549 L129.5625,117.473684 L143.155501,117.473684 L143.155501,125.890197 L150.977171,125.890197 L150.977171,135.08238 L143.155501,135.08238 L143.155501,151.547654 C143.155501,154.444322 144.598333,155.7402 147.180244,155.7402 C148.699015,155.7402 149.622782,155.511516 150.837799,155.054147 L150.837799,165.421172 C149.091212,165.87854 146.724612,166.564593 143.535193,166.564593 Z M175.200519,166.564593 C163.335334,166.564593 154.284328,159.640913 154.284328,146.250059 L154.284328,145.641384 C154.284328,132.402698 163.791688,124.794258 175.504754,124.794258 C185.24029,124.794258 194.215238,129.054985 194.975826,141.152404 L182.197935,141.152404 C181.590424,137.424269 179.764591,135.36999 175.809329,135.36999 C171.018659,135.36999 168.203102,138.79452 168.203102,145.489951 L168.203102,146.097117 C168.203102,152.79331 171.018659,156.597537 175.809329,156.597537 C179.764591,156.597537 181.590424,154.315005 182.09728,149.978194 L194.988692,149.978194 C194.608398,160.021335 188.054469,166.564593 175.200519,166.564593 Z M200.157159,165.703349 L200.157159,111.229665 L213.819742,111.229665 L213.819742,132.313273 C215.956906,128.206066 220.307561,124.859452 226.948035,124.859452 C234.65709,124.859452 240,129.651194 240,139.843154 L240,165.703349 L226.337417,165.703349 L226.337417,142.581292 C226.337417,138.093788 224.581889,135.888065 220.61287,135.888065 C216.567524,135.888065 213.819742,138.321966 213.819742,143.417945 L213.819742,165.703349 L200.157159,165.703349 Z" id="pitch-logo" fill="#383c43"></path>
    </g>
</svg>
 -->

<svg width="286px" height="60px" viewBox="-143 25 286 60" version="1.1" xmlns="http://www.w3.org/2000/svg" xmlns:xlink="http://www.w3.org/1999/xlink">
    <!-- Generator: Sketch 42 (36781) - http://www.bohemiancoding.com/sketch -->
    <desc>Created with Sketch.</desc>
    <defs></defs>
    <path d="M-123,84.12 C-113.08,84.12 -103.8,78.52 -103.8,66.2 L-103.8,29 C-103.8,27.72 -104.52,27 -105.8,27 L-114.6,27 C-115.88,27 -116.6,27.72 -116.6,29 L-116.6,66.2 C-116.6,69.64 -118.6,71.64 -123,71.64 C-126.76,71.64 -128.76,70.2 -129.24,66.6 C-129.48,65.32 -130.12,64.6 -131.32,64.6 L-140.2,64.6 C-141.48,64.6 -142.2,65.32 -142.12,66.68 C-141.24,79.08 -132.44,84.12 -123,84.12 Z M-93.4,38.2 L-85.4,38.2 C-84.12,38.2 -83.4,37.48 -83.4,36.2 L-83.4,29 C-83.4,27.72 -84.12,27 -85.4,27 L-93.4,27 C-94.68,27 -95.4,27.72 -95.4,29 L-95.4,36.2 C-95.4,37.48 -94.68,38.2 -93.4,38.2 Z M-93.4,83 L-85.4,83 C-84.12,83 -83.4,82.28 -83.4,81 L-83.4,45 C-83.4,43.72 -84.12,43 -85.4,43 L-93.4,43 C-94.68,43 -95.4,43.72 -95.4,45 L-95.4,81 C-95.4,82.28 -94.68,83 -93.4,83 Z M-58.04,41.8800012 C-49.24,41.8800012 -41.4,47.0000012 -41.4,57.8000012 L-41.4,81.0000012 C-41.4,82.2800012 -42.12,83.0000012 -43.4,83.0000012 L-51.08,83.0000012 C-52.36,83.0000012 -53.08,82.2800012 -53.08,81.0000012 L-53.08,79.8576013 C-55.2247998,82.3680017 -58.3735999,84.1200012 -63.4,84.1200012 C-70.44,84.1200012 -76.6,79.9600012 -76.6,71.6400012 C-76.6,63.3200012 -70.44,59.1600012 -63.4,59.1600012 C-58.3735999,59.1600012 -55.2247998,60.5784009 -53.08,62.2104004 L-53.08,58.6 C-53.08,54.68 -54.68,52.92 -58.04,52.92 C-60.52,52.92 -62.04,53.88 -62.68,55.24 C-63.16,56.36 -63.56,57 -64.76,57 L-72.6,57 C-73.88,57 -74.68,56.28 -74.6,54.92 C-73.56,46.28 -66.2,41.88 -58.04,41.88 L-58.04,41.8800012 Z M-59.16,75.6400012 C-55.24,75.6400012 -53.08,73.9600012 -53.08,71.6400012 C-53.08,69.1600012 -55.24,67.6400012 -59.16,67.6400012 C-62.84,67.6400012 -64.6,69.3200012 -64.6,71.6400012 C-64.6,73.9600012 -62.84,75.6400012 -59.16,75.6400012 Z M-31.64,83 L-23.64,83 C-22.36,83 -21.64,82.28 -21.64,81 L-21.64,27.4 C-21.64,26.12 -22.36,25.4 -23.64,25.4 L-31.64,25.4 C-32.92,25.4 -33.64,26.12 -33.64,27.4 L-33.64,81 C-33.64,82.28 -32.92,83 -31.64,83 Z M-10.84,38.2 L-2.84,38.2 C-1.56,38.2 -0.84,37.48 -0.84,36.2 L-0.84,29 C-0.84,27.72 -1.56,27 -2.84,27 L-10.84,27 C-12.12,27 -12.84,27.72 -12.84,29 L-12.84,36.2 C-12.84,37.48 -12.12,38.2 -10.84,38.2 Z M-10.84,83 L-2.84,83 C-1.56,83 -0.84,82.28 -0.84,81 L-0.84,45 C-0.84,43.72 -1.56,43 -2.84,43 L-10.84,43 C-12.12,43 -12.84,43.72 -12.84,45 L-12.84,81 C-12.84,82.28 -12.12,83 -10.84,83 Z M30.36,41.88 C25.2456006,41.88 21.84,43.8735999 19.96,46.6535999 L19.96,45 C19.96,43.72 19.24,43 17.96,43 L9.96,43 C8.68,43 7.96,43.72 7.96,45 L7.96,81 C7.96,82.28 8.68,83 9.96,83 L17.96,83 C19.24,83 19.96,82.28 19.96,81 L19.96,59.64 C19.96,54.92 22.2,52.92 25.8,52.92 C28.84,52.92 31.16,54.68 31.16,58.68 L31.16,81 C31.16,82.28 31.88,83 33.16,83 L41.16,83 C42.44,83 43.16,82.28 43.16,81 L43.16,57.64 C43.16,47.64 37.8,41.88 30.36,41.88 Z M101.32,70.68 L84.12,70.68 L84.12,29 C84.12,27.72 83.4,27 82.12,27 L73.32,27 C72.04,27 71.32,27.72 71.32,29 L71.32,81 C71.32,82.28 72.04,83 73.32,83 L101.32,83 C102.6,83 103.32,82.28 103.32,81 L103.32,72.68 C103.32,71.4 102.6,70.68 101.32,70.68 Z M140.68,43 L132.68,43 C131.4,43 130.68,43.72 130.68,45 L130.68,66.36 C130.68,71.08 128.44,73.08 124.84,73.08 C121.8,73.08 119.48,71.32 119.48,67.32 L119.48,45 C119.48,43.72 118.76,43 117.48,43 L109.48,43 C108.2,43 107.48,43.72 107.48,45 L107.48,68.36 C107.48,78.36 112.84,84.12 120.28,84.12 C125.394399,84.12 128.8,82.1264001 130.68,79.3464001 L130.68,81 C130.68,82.28 131.4,83 132.68,83 L140.68,83 C141.96,83 142.68,82.28 142.68,81 L142.68,45 C142.68,43.72 141.96,43 140.68,43 Z" id="Jialin-Lu" stroke="none" fill="#000000" fill-rule="evenodd"></path>
</svg>