<?xml version="1.0" encoding="UTF-8"?>
<svg width="22px" height="18px" viewBox="0 0 22 18" version="1.1" xmlns="http://www.w3.org/2000/svg" xmlns:xlink="http://www.w3.org/1999/xlink">
    <g id="Coming-Soon-Copy-3" stroke="none" stroke-width="1" fill="none" fill-rule="evenodd" transform="translate(-689.000000, -1144.000000)">
        <path d="M711,1144 C710.042385,1144.67548 708.982108,1145.19211 707.86,1145.53 C706.62636,1144.11154 704.63837,1143.61411 702.882081,1144.28445 C701.125793,1144.95479 699.9748,1146.6503 700,1148.53 L700,1149.53 C696.430665,1149.62255 693.052025,1147.92197 691,1145 C691,1145 687,1154 696,1158 C693.940528,1159.39797 691.487157,1160.09893 689,1160 C698,1165 709,1160 709,1148.5 C708.999079,1148.22145 708.972297,1147.94359 708.92,1147.67 C709.940603,1146.66349 710.660827,1145.39271 711,1144 Z" id="twitter" fill="#00aced"></path>
    </g>
</svg>