<?xml version="1.0" encoding="utf-8"?>
<!-- Generator: Adobe Illustrator 24.2.0, SVG Export Plug-In . SVG Version: 6.00 Build 0)  -->
<svg version="1.1" id="レイヤー_1" xmlns="http://www.w3.org/2000/svg" xmlns:xlink="http://www.w3.org/1999/xlink" x="0px"
	 y="0px" viewBox="0 0 2139.1 1031.9" style="enable-background:new 0 0 2139.1 1031.9;" xml:space="preserve">
<style type="text/css">
	.st0{fill:none;stroke:#B5E4FF;stroke-width:20;stroke-miterlimit:10;}
	.st1{fill:none;stroke:#008EBC;stroke-width:2;stroke-miterlimit:10;}
	.st2{opacity:0.4;fill:#FFCC45;}
	.st3{fill:none;stroke:#000000;stroke-width:2;stroke-miterlimit:10;}
</style>
<path class="st0" d="M1495,10h110.8 M1428.2,30h233.7 M1391.2,50h274.6 M1364.7,70h297.2 M1344,90h310.9 M1327.4,110h319.5
	 M1313.8,130h325 M1302.7,150h329.1 M1293.7,170h333.2 M1286.4,190h336.5 M1280.7,210h339.1 M1276.5,230h341.3 M1273.7,250h343.2
	 M1272.2,270h343.7 M1271.9,290h344 M1271.9,310h344 M1272.3,330h342.5 M1273.8,350h338.1 M1276,370h331.9 M1278.6,390h323.3
	 M1281.3,410h314.5 M1284.1,430h304.8 M1286.7,450h296.2 M1289,470h287.8 M1291.2,490h280.7 M1293.1,510h274.8 M1294.8,530h269.1
	 M1296.2,550h263.7 M1297.4,570h259.4 M1298.4,590h256.4 M1299.2,610h253.6 M1299.9,630h251 M1300.4,650h249.5 M1300.7,670h248.2
	 M1300.8,690h248 M1300.9,710h248 M1300.9,730h248 M1300.9,750h248 M1301.8,770h246.1 M1308.7,790h232.2 M1327.3,810h195.6"/>
<path d="M1376.9,790.1h88v-468h135v-68h-135v-35c0-84,28-122,87-122c23,0,49,5,80,15l23-69c-35-12-70-18-104-18
	c-118,0-174,65-174,195v31l-94,30v41h94V790.1z"/>
<path class="st1" d="M1270.9,790h344 M1270.9,30v1000h344V30H1270.9z"/>
<path class="st0" d="M1748.9,210h237 M1696.9,230h338 M1663.9,250h402 M1640.9,270h446 M1625.9,290h477 M1617.9,310h496 M1613.9,330
	h509 M1611.9,350h517 M1608.9,370h524 M1605.9,390h530 M1602.9,410h535 M1599.9,430h538 M1596.9,450h541 M1592.9,470h545
	 M1589.9,490h548 M1586.9,510h551 M1584.9,530h553 M1581.9,550h556 M1579.9,570h558 M1578.9,590h559 M1577.9,610h560 M1576.9,630
	h561 M1576.9,650h561 M1577.9,670h560 M1580.9,690h557 M1584.9,710h553 M1591.9,730h546 M1602.9,750h533 M1618.9,770h510
	 M1643.9,790h471 M1694.9,810h395"/>
<path d="M1829.9,728.9c-62,0-98-31-98-87c0-74,54-106,177-111l79-3v48C1987.9,673.9,1927.9,728.9,1829.9,728.9z M1809.9,799.9
	c80,0,127-19,180-86h4l17,76h64v-365c0-125-63-180-192-180c-62,0-129,17-183,46l27,66c44-21,95-41,151-41c78,0,111,37,111,119v32
	l-91,3c-171,6-257,62-257,171C1640.9,741.9,1703.9,799.9,1809.9,799.9z"/>
<path class="st1" d="M1576.9,790h561 M1576.9,30v1000h561V30H1576.9z"/>
<rect x="1576.9" y="30" class="st2" width="38" height="1000"/>
<path class="st0" d="M225.2,10H336 M158.3,30H392 M121.4,50H396 M94.8,70H392 M74.1,90H385 M57.5,110H377 M44,130h325 M32.9,150H362
	 M23.8,170H357 M16.5,190H353 M10.9,210H350 M6.7,230H348 M3.8,250H347 M2.3,270H346 M2,290h344 M2,310h344 M2.5,330H345 M3.9,350
	H342 M6.1,370H338 M8.7,390H332 M11.5,410H326 M14.2,430H319 M16.8,450H313 M19.2,470H307 M21.3,490H302 M23.2,510H298 M24.9,530
	H294 M26.3,550H290 M27.6,570H287 M28.6,590H285 M29.4,610H283 M30,630h251 M30.5,650H280 M30.8,670H279 M31,690h248 M31,710h248
	 M31,730h248 M31,750h248 M31.9,770H278 M38.8,790H271 M57.4,810H253"/>
<path d="M107,790.1h88v-468h135v-68H195v-35c0-84,28-122,87-122c23,0,49,5,80,15l23-69c-35-12-70-18-104-18c-118,0-174,65-174,195
	v31l-94,30v41h94V790.1z"/>
<path class="st1" d="M1,790h344 M1,30v1000h344V30H1z"/>
<path class="st0" d="M517,210h237 M465,230h338 M432,250h402 M409,270h446 M394,290h477 M386,310h496 M382,330h509 M380,350h517
	 M377,370h524 M374,390h530 M371,410h535 M368,430h538 M365,450h541 M361,470h545 M358,490h548 M355,510h551 M353,530h553 M350,550
	h556 M348,570h558 M347,590h559 M346,610h560 M345,630h561 M345,650h561 M346,670h560 M349,690h557 M353,710h553 M360,730h546
	 M371,750h533 M387,770h510 M412,790h471 M463,810h395"/>
<path d="M598,728.9c-62,0-98-31-98-87c0-74,54-106,177-111l79-3v48C756,673.9,696,728.9,598,728.9z M578,799.9c80,0,127-19,180-86h4
	l17,76h64v-365c0-125-63-180-192-180c-62,0-129,17-183,46l27,66c44-21,95-41,151-41c78,0,111,37,111,119v32l-91,3
	c-171,6-257,62-257,171C409,741.9,472,799.9,578,799.9z"/>
<path class="st1" d="M345,790h561 M345,30v1000h561V30H345z"/>
<g>
	<g>
		<line class="st3" x1="1014.1" y1="500.7" x2="1134.1" y2="500.7"/>
		<g>
			<polygon points="1128.2,520.7 1162.8,500.7 1128.2,480.8 			"/>
		</g>
	</g>
</g>
<g>
	<path d="M1660.4,952.6c-1,1.1-1.3,1.1-1.8,0.7c-2.9-2.3-6.2-6-8.8-9.4c-0.1-0.2-0.3-0.3-0.5-0.2c-1.5,0.1-3.5,0.2-5.2,0.2
		c-0.3,0-0.4,0.1-0.4,0.4c0,1.8,0,3.6,0,5.3c0,0.3,0.1,0.4,0.4,0.4c1,0,2,0,2.8,0c0.7,0,0.9,0.2,0.9,1.4s-0.2,1.4-0.9,1.4
		c-2.6,0-6.7,0.1-8.9,0.2c-0.7,0-0.9-0.1-0.9-1.4c0-1.3,0.1-1.4,0.8-1.5c0.5,0,1.2,0,1.9-0.1c0.3,0,0.4-0.1,0.4-0.4
		c0-6.2,0.1-12.3,0.2-18.5c0-0.3-0.1-0.4-0.4-0.4c-0.5,0-1,0-1.6,0c-0.7,0-0.9-0.1-0.9-1.4c0-1.3,0.2-1.4,0.9-1.5
		c3.9-0.1,7.2-0.1,10-0.1c6.4,0,9.9,3.2,9.9,7.6c0,3.2-1.8,5.5-4.8,7c-0.3,0.1-0.3,0.4-0.1,0.7c2.4,2.9,5.1,5.8,7.5,7.7
		C1661.3,951.3,1661.4,951.6,1660.4,952.6z M1643.7,931.2c-0.1,3.1-0.1,6.3-0.1,9.4c0,0.3,0.1,0.4,0.4,0.4c2.2,0,4.6-0.1,6.3-0.3
		c0.2,0,0.3-0.1,0.5-0.1c2.3-1,3.7-2.7,3.7-5.2c0-2.8-2.2-4.7-6.3-4.7c-1.2,0-2.6,0-4.1,0C1643.8,930.8,1643.7,930.9,1643.7,931.2z"
		/>
	<path d="M1668,943.8c-0.3,0-0.4,0.1-0.4,0.2c0,4.1,2.9,6.7,7.4,6.7c3,0,5.9-1.2,7.8-3.1c0.5-0.5,0.8-0.5,1.5,0.5
		c0.7,1,0.6,1.3,0.1,1.8c-2.6,2.4-5.9,3.7-9.5,3.7c-6.3,0-10.8-3.7-10.8-9.5c0-6.7,5.5-11.4,11.6-11.4c5.5,0,9.1,3.3,9.1,8.4
		c0,0.3,0,0.6-0.1,1c-0.1,0.8-0.9,1.4-1.7,1.5C1679.8,943.7,1673.7,943.8,1668,943.8z M1668.3,940.5c-0.1,0.3,0,0.5,0.4,0.5
		c4.5,0,9.4-0.1,12.4-0.2c0.3,0,0.4-0.1,0.4-0.4c-0.2-3.1-2.2-4.9-5.7-4.9C1672.6,935.5,1669.6,937.3,1668.3,940.5z"/>
	<path d="M1691,950.5c-0.5-0.6-0.5-0.9,0.4-1.9c0.9-1.1,1.2-1.1,1.7-0.6c1.8,1.7,4.3,2.4,7.7,2.4c3.7,0,6.1-1.3,6.1-3.3
		c0-1.7-1.5-2.4-6-2.5c-5.9-0.1-9.1-2.1-9.1-5.7c0-3.9,3.5-6.2,9-6.2c2.8,0,5.9,0.7,8.4,1.8c0.7,0.4,0.8,0.6,0.3,1.9
		c-0.6,1.3-0.8,1.4-1.4,1.1c-2.4-1.2-4.9-1.7-7.4-1.7c-3.6,0-5.3,1-5.3,2.8c0,1.6,1.7,2.4,5.8,2.4c6.3,0.1,9.3,2.1,9.3,5.7
		c0,4.1-4.1,6.7-9.8,6.7C1696.3,953.6,1692.9,952.5,1691,950.5z"/>
	<path d="M1739.2,951.5c0,1.3-0.1,1.4-0.9,1.6c-1.4,0.2-2.4,0.3-3.3,0.3c-1.9,0-2.8-0.8-2.8-2.8v-0.2c0-0.4-0.3-0.5-0.5-0.2
		c-2.3,2.4-4.8,3.6-7.7,3.6c-4.4,0-6.8-2.4-6.8-6.9c0-3.2,0.3-7.6,0.3-10.3c0-0.3-0.2-0.4-0.4-0.4l-2.3,0c-0.7,0-0.9-0.2-0.9-1.4
		s0.2-1.4,0.9-1.4l5,0c0.6,0,1.2,0.5,1.2,1.2c0,3.5-0.3,8.7-0.3,11.9c0,3,1.3,4.4,4.1,4.4c2.5,0,4.9-1.3,6.9-4
		c0.1-0.2,0.2-0.3,0.2-0.5c0.1-3.2,0.2-7.1,0.3-9.6c0-0.3-0.1-0.4-0.4-0.4l-4,0.1c-0.7,0-0.9-0.1-0.9-1.4s0.2-1.4,0.9-1.4l6.7-0.1
		c0.6,0,1.1,0.5,1.1,1.1c-0.1,4.2-0.4,12-0.4,15.3c0,0.6,0.3,0.9,0.9,0.9c0.5,0,1.2-0.1,2.1-0.3
		C1739,950.1,1739.2,950.3,1739.2,951.5z"/>
	<path d="M1762.9,951.1c0,1.3-0.2,1.5-0.9,1.5c-6.2,0.4-12.4,0.4-18.6,0.4c-0.7,0-0.9-0.2-0.9-1.5c0-1.3,0.2-1.5,0.9-1.5
		c2.2,0,4.4,0,6.7,0c0.3,0,0.4-0.1,0.4-0.4c0.1-6.1,0.5-15.9,0.6-19.7c0-0.3-0.1-0.4-0.4-0.4c-2.2,0.1-4.4,0.2-6.6,0.4
		c-0.7,0.1-0.9-0.1-0.9-1.4c-0.1-1.4,0.1-1.5,0.8-1.6c3.1-0.3,6.2-0.5,9.3-0.6c0.8,0,1.4,0.6,1.4,1.4c-0.2,4.3-0.6,15.2-0.7,21.8
		c0,0.3,0.2,0.4,0.5,0.4c2.6-0.1,5.1-0.2,7.6-0.3C1762.7,949.6,1762.9,949.7,1762.9,951.1z"/>
	<path d="M1788,948.9c-2.4,2.7-5.7,4.8-9.1,4.8c-4.6,0-7.1-2.5-7.1-6.8c0-1.5,0.1-5.7,0.3-9.9c0-0.3-0.1-0.5-0.4-0.5
		c-1.4,0-2.7,0-4,0c-0.7,0-0.9-0.2-0.9-1.4s0.2-1.4,0.9-1.4c1.3,0,2.7,0,4.1,0c0.3,0,0.4-0.1,0.4-0.4c0.1-1.6,0.1-3.2,0.2-4.5
		c0-0.8,0.3-1,1.7-1c1.5,0,1.7,0.2,1.7,0.9c-0.1,1.3-0.1,2.8-0.2,4.5c0,0.3,0.1,0.4,0.4,0.4c4.2-0.1,8.4-0.2,11.4-0.4
		c0.7-0.1,0.9,0.1,0.9,1.4s-0.1,1.4-0.9,1.5c-3.1,0.2-7.3,0.4-11.6,0.5c-0.3,0-0.4,0.1-0.4,0.4c-0.1,4.2-0.3,8.2-0.3,9.5
		c0,2.7,1.3,4.2,3.9,4.2c2.2,0,4.7-1.3,6.8-3.6c0.5-0.5,0.7-0.5,1.6,0.3C1788.4,948.1,1788.4,948.3,1788,948.9z"/>
	<path d="M1814.7,951.2c0,1.3-0.2,1.5-0.9,1.5c-6.2,0.3-12.4,0.4-18.6,0.4c-0.7,0-0.9-0.2-0.9-1.5c0-1.3,0.2-1.5,0.9-1.5
		c2.3,0,4.6,0,6.9,0c0.3,0,0.4-0.1,0.4-0.4c0.1-5.7,0.6-10.9,0.6-12.8c0-0.3-0.1-0.4-0.6-0.4c-0.6,0-3.3,0.2-6.2,0.5
		c-0.7,0-0.9-0.1-0.9-1.4c-0.1-1.3,0.1-1.5,0.8-1.6c3.3-0.3,7.1-0.6,8-0.6c1.5,0,2.3,0.5,2.3,2.1c0,2.2-0.5,8.2-0.6,14.1
		c0,0.3,0.1,0.4,0.4,0.4c2.5-0.1,4.9-0.1,7.4-0.3C1814.6,949.7,1814.7,949.9,1814.7,951.2z M1802.5,927.4c0-1.4,1.1-2.6,2.6-2.6
		c1.5,0,2.7,1.2,2.7,2.6c0,1.5-1.2,2.6-2.7,2.6C1803.6,930,1802.5,928.9,1802.5,927.4z"/>
	<path d="M1842.9,951.6c0,1.3-0.2,1.4-0.9,1.5c-1.7,0.1-3.3,0.1-4.9,0.2c-0.6,0-1.1-0.5-1-1.2c0.3-3.9,0.6-8.8,0.6-10.7
		c0-3.8-1.6-5.7-4.8-5.7c-3.4,0-6.6,2.7-6.8,4.9c-0.1,3.1-0.1,6.2-0.1,9.3c0,0.3,0.2,0.4,0.4,0.4l2.9-0.1c0.7,0,0.9,0.2,0.9,1.4
		s-0.2,1.4-0.9,1.4l-8.8,0.1c-0.7,0-0.9-0.2-0.9-1.4c0-1.3,0.1-1.4,0.9-1.4l1.7,0c0.3,0,0.4-0.1,0.4-0.4c0-4.4,0.1-8.8,0.2-13.2
		c0-0.3-0.1-0.4-0.4-0.4l-2.3,0.1c-0.7,0-0.9-0.1-0.9-1.4c0-1.3,0.1-1.4,0.8-1.5l4.5-0.3c0.6-0.1,1.2,0.4,1.2,1l-0.1,2.1
		c0,0.3,0,0.4,0.1,0.4c0.1,0,0.2-0.1,0.3-0.3c1.5-2.1,4.5-3.8,7.8-3.8c4.7,0,7.4,3,7.4,8.3c0,1.6-0.2,5.5-0.5,8.9
		c0,0.3,0.1,0.5,0.4,0.5c0.7,0,1.4,0,2.1-0.1C1842.7,950.1,1842.9,950.3,1842.9,951.6z"/>
	<path d="M1868,934.6c0,1.4-0.2,1.5-0.9,1.5l-2.6,0c-0.3,0-0.4,0.2-0.4,0.5c0.1,0.4,0.2,0.9,0.2,1.4c0,4.8-4.2,7.7-11.4,7.7
		c-0.3,0-0.4,0.1-0.5,0.3c-0.3,0.5-0.4,1.1-0.4,1.7c0,0.5,0.1,0.9,0.3,1.3c0.1,0.3,0.3,0.3,0.5,0.3c1.3-0.2,2.8-0.3,4.4-0.3
		c5.5,0,8.6,1.7,8.6,4.9c0,3.9-6.3,7.2-13.2,7.2c-5.3,0-8.3-2.1-8.3-5.3c0-2.5,1.9-4.4,5-5.6c0.3-0.1,0.3-0.3,0.2-0.5
		c-0.2-0.5-0.4-1.2-0.4-1.9c0-0.8,0.2-1.7,0.5-2.4c0.1-0.3,0.1-0.4-0.2-0.6c-2-1.3-3.2-3.1-3.2-5.1c0-3.9,4.5-6.9,10-6.9
		c2.1,0,3.8,0.3,5.1,0.9c0.2,0.1,0.4,0.1,0.5,0.1l5.1-0.5C1867.8,933.1,1868,933.2,1868,934.6z M1857.2,951.9
		c-5.6,0-9.5,1.5-9.5,3.8c0,1.5,1.8,2.5,5.1,2.5c5,0,9.6-1.9,9.6-4.1C1862.3,952.7,1860.5,951.9,1857.2,951.9z M1852,942.9
		c5.8,0.3,9.1-1.5,9.1-4.5c0-1.8-1.7-2.7-4.9-2.7c-3.7,0-6.6,1.9-6.6,4.3c0,1.2,0.6,2.2,1.8,2.8
		C1851.7,942.8,1851.8,942.9,1852,942.9z"/>
	<path d="M1661.5,988.8c-0.7,1.3-1,1.4-1.6,1.1c-3.4-1.7-7.7-5.1-11-8.1c-0.6-0.5-0.5-1.3,0.1-1.8c3.4-2.3,5-3.9,5-5.8
		c0-1.5-1-2.4-2.9-2.4c-3.2,0-7.2,2.9-7.3,5.4c-0.1,2.9-0.2,5.9-0.3,8.6c0,0.3,0.1,0.4,0.4,0.4l2.7,0c0.7,0,0.9,0.2,0.9,1.4
		s-0.1,1.4-0.9,1.4l-8.8,0.1c-0.7,0-0.9-0.2-0.9-1.4s0.1-1.4,0.9-1.4l1.8,0c0.3,0,0.4-0.1,0.4-0.4c0.3-8.2,0.5-16.2,0.5-20
		c0-0.3-0.2-0.4-0.4-0.4l-2.7,0.1c-0.7,0-0.9-0.1-0.9-1.4s0.2-1.4,0.9-1.5l5.4-0.1c0.6,0,1.2,0.5,1.2,1.1c0,2.1-0.2,5.1-0.3,8.5
		c0,0.3,0,0.4,0.1,0.4c0.1,0,0.2,0,0.3-0.3c1.8-2,5-3.6,7.8-3.6c3.7,0,5.7,2.2,5.7,4.9c0,3-1.8,4.9-4.6,6.8c-0.3,0.2-0.3,0.4,0,0.7
		c2.6,2.2,5.8,4.5,8.3,5.8C1662.1,987.2,1662.2,987.5,1661.5,988.8z"/>
	<path d="M1668,979.8c-0.3,0-0.4,0.1-0.4,0.2c0,4.1,2.9,6.7,7.4,6.7c3,0,5.9-1.2,7.8-3.1c0.5-0.5,0.8-0.5,1.5,0.5
		c0.7,1,0.6,1.3,0.1,1.8c-2.6,2.4-5.9,3.7-9.5,3.7c-6.3,0-10.8-3.7-10.8-9.5c0-6.7,5.5-11.4,11.6-11.4c5.5,0,9.1,3.3,9.1,8.4
		c0,0.3,0,0.6-0.1,1c-0.1,0.8-0.9,1.4-1.7,1.5C1679.8,979.7,1673.7,979.8,1668,979.8z M1668.3,976.5c-0.1,0.3,0,0.5,0.4,0.5
		c4.5,0,9.4-0.1,12.4-0.2c0.3,0,0.4-0.1,0.4-0.4c-0.2-3.1-2.2-4.9-5.7-4.9C1672.6,971.5,1669.6,973.3,1668.3,976.5z"/>
	<path d="M1706.6,987.3c0,1.3-0.1,1.4-0.9,1.5l-15.1,0.3c-0.7,0-0.9-0.1-0.9-1.4s0.2-1.4,0.9-1.4l4.2-0.1c0.3,0,0.4-0.1,0.5-0.4
		c0.2-4.1,0.5-9.3,0.5-11.8c0-0.4,0-0.8,0-1.2c0-0.3-0.2-0.4-0.5-0.4l-4.6,0.4c-0.7,0.1-0.9-0.1-0.9-1.4s0.1-1.4,0.9-1.5l7.1-0.6
		c0.6-0.1,1,0.3,1.1,0.9c0.1,0.7,0.1,1.5,0.1,2.2c0,0.4,0,0.9,0,1.4c0,0.3,0,0.4,0.1,0.4c0.1,0,0.2-0.1,0.3-0.3
		c2.2-2.8,5.9-4.9,9.1-4.9c2.3,0,3.9,0.9,3.9,2.7c0,1.4-1.1,2.4-2.5,2.4c-1,0-2-0.5-2.9-1.3c-0.2-0.1-0.4-0.2-0.6-0.2
		c-3.1,0.5-6.4,3.1-7.2,5.8c-0.1,0.2-0.1,0.3-0.1,0.5c-0.1,2.2-0.3,4.7-0.4,6.7c0,0.3,0.1,0.4,0.4,0.4l6.6-0.1
		C1706.5,985.8,1706.6,986,1706.6,987.3z"/>
	<path d="M1739.2,987.6c0,1.3-0.2,1.4-0.9,1.5c-1.7,0.1-3.3,0.1-4.9,0.2c-0.6,0-1.1-0.5-1-1.2c0.3-3.9,0.6-8.8,0.6-10.7
		c0-3.8-1.6-5.7-4.8-5.7c-3.4,0-6.6,2.7-6.8,4.9c-0.1,3.1-0.1,6.2-0.1,9.3c0,0.3,0.2,0.4,0.4,0.4l2.9-0.1c0.7,0,0.9,0.2,0.9,1.4
		s-0.2,1.4-0.9,1.4l-8.8,0.1c-0.7,0-0.9-0.2-0.9-1.4c0-1.3,0.1-1.4,0.9-1.4l1.7,0c0.3,0,0.4-0.1,0.4-0.4c0-4.4,0.1-8.8,0.2-13.2
		c0-0.3-0.1-0.4-0.4-0.4l-2.3,0.1c-0.7,0-0.9-0.1-0.9-1.4c0-1.3,0.1-1.4,0.8-1.5l4.5-0.3c0.6-0.1,1.2,0.4,1.2,1l-0.1,2.1
		c0,0.3,0,0.4,0.1,0.4c0.1,0,0.2-0.1,0.3-0.3c1.5-2.1,4.5-3.8,7.8-3.8c4.7,0,7.4,3,7.4,8.3c0,1.6-0.2,5.5-0.5,8.9
		c0,0.3,0.1,0.5,0.4,0.5c0.7,0,1.4,0,2.1-0.1C1739,986.1,1739.2,986.3,1739.2,987.6z"/>
	<path d="M1762.9,987.2c0,1.3-0.2,1.5-0.9,1.5c-6.2,0.3-12.4,0.4-18.6,0.4c-0.7,0-0.9-0.2-0.9-1.5c0-1.3,0.2-1.5,0.9-1.5
		c2.3,0,4.6,0,6.9,0c0.3,0,0.4-0.1,0.4-0.4c0.1-5.7,0.6-10.9,0.6-12.8c0-0.3-0.1-0.4-0.6-0.4c-0.6,0-3.3,0.2-6.2,0.5
		c-0.7,0-0.9-0.1-0.9-1.4c-0.1-1.3,0.1-1.5,0.8-1.6c3.3-0.3,7.1-0.6,8-0.6c1.5,0,2.3,0.5,2.3,2.1c0,2.2-0.5,8.2-0.6,14.1
		c0,0.3,0.1,0.4,0.4,0.4c2.5-0.1,4.9-0.1,7.4-0.3C1762.7,985.7,1762.9,985.9,1762.9,987.2z M1750.7,963.4c0-1.4,1.1-2.6,2.6-2.6
		c1.5,0,2.7,1.2,2.7,2.6c0,1.5-1.2,2.6-2.7,2.6C1751.7,966,1750.7,964.9,1750.7,963.4z"/>
	<path d="M1791.1,987.6c0,1.3-0.2,1.4-0.9,1.5c-1.7,0.1-3.3,0.1-4.9,0.2c-0.6,0-1.1-0.5-1-1.2c0.3-3.9,0.6-8.8,0.6-10.7
		c0-3.8-1.6-5.7-4.8-5.7c-3.4,0-6.6,2.7-6.8,4.9c-0.1,3.1-0.1,6.2-0.1,9.3c0,0.3,0.2,0.4,0.4,0.4l2.9-0.1c0.7,0,0.9,0.2,0.9,1.4
		s-0.2,1.4-0.9,1.4l-8.8,0.1c-0.7,0-0.9-0.2-0.9-1.4c0-1.3,0.1-1.4,0.9-1.4l1.7,0c0.3,0,0.4-0.1,0.4-0.4c0-4.4,0.1-8.8,0.2-13.2
		c0-0.3-0.1-0.4-0.4-0.4l-2.3,0.1c-0.7,0-0.9-0.1-0.9-1.4c0-1.3,0.1-1.4,0.8-1.5l4.5-0.3c0.6-0.1,1.2,0.4,1.2,1l-0.1,2.1
		c0,0.3,0,0.4,0.1,0.4c0.1,0,0.2-0.1,0.3-0.3c1.5-2.1,4.5-3.8,7.8-3.8c4.7,0,7.4,3,7.4,8.3c0,1.6-0.2,5.5-0.5,8.9
		c0,0.3,0.1,0.5,0.4,0.5c0.7,0,1.4,0,2.1-0.1C1790.9,986.1,1791.1,986.3,1791.1,987.6z"/>
	<path d="M1816.1,970.6c0,1.4-0.2,1.5-0.9,1.5l-2.6,0c-0.3,0-0.4,0.2-0.4,0.5c0.1,0.4,0.2,0.9,0.2,1.4c0,4.8-4.2,7.7-11.4,7.7
		c-0.3,0-0.4,0.1-0.5,0.3c-0.3,0.5-0.4,1.1-0.4,1.7c0,0.5,0.1,0.9,0.3,1.3c0.1,0.3,0.3,0.3,0.5,0.3c1.3-0.2,2.8-0.3,4.4-0.3
		c5.5,0,8.6,1.7,8.6,4.9c0,3.9-6.3,7.2-13.2,7.2c-5.3,0-8.3-2.1-8.3-5.3c0-2.5,1.9-4.4,5-5.6c0.3-0.1,0.3-0.3,0.2-0.5
		c-0.2-0.5-0.4-1.2-0.4-1.9c0-0.8,0.2-1.7,0.5-2.4c0.1-0.3,0.1-0.4-0.2-0.6c-2-1.3-3.2-3.1-3.2-5.1c0-3.9,4.5-6.9,10-6.9
		c2.1,0,3.8,0.3,5.1,0.9c0.2,0.1,0.4,0.1,0.5,0.1l5.1-0.5C1816,969.1,1816.1,969.2,1816.1,970.6z M1805.3,987.9
		c-5.6,0-9.5,1.5-9.5,3.8c0,1.5,1.8,2.5,5.1,2.5c5,0,9.6-1.9,9.6-4.1C1810.5,988.7,1808.6,987.9,1805.3,987.9z M1800.2,978.9
		c5.8,0.3,9.1-1.5,9.1-4.5c0-1.8-1.7-2.7-4.9-2.7c-3.7,0-6.6,1.9-6.6,4.3c0,1.2,0.6,2.2,1.8,2.8
		C1799.8,978.8,1800,978.9,1800.2,978.9z"/>
	<path d="M1867,975.3c0,4.5-2.4,8.6-5.7,11.6c-2.2,2.1-4.1,3-5.8,3c-1.8,0-2.8-0.5-3.5-3.2c-0.8-2.7-2.9-10.5-4-14.4
		c-0.1-0.3-0.3-0.4-0.5-0.4c-0.9,0.1-1.9,0.1-2.9,0.2c-0.7,0.1-0.9-0.1-0.9-1.3c-0.1-1.3,0.1-1.5,0.8-1.5c1.7-0.1,3.7-0.3,5.3-0.3
		c0.5,0,1,0.4,1.1,0.8c1.2,4.2,3.2,12.2,4,14.8c0.4,1.5,0.6,1.7,1.3,1.7c0.8,0,1.6-0.4,3.1-1.8c2.4-2.3,4.5-5.6,4.5-9
		c0-0.4,0-0.7-0.1-1c0-0.2-0.2-0.4-0.4-0.4c-1.7-0.6-2.8-1.8-2.8-3.3c0-1.3,0.9-2.1,2.3-2.1C1865,968.7,1867,971.3,1867,975.3z"/>
	<path d="M1892.8,989.2c-0.8,0.2-1.8,0.3-2.6,0.3c-2.2,0-3.2-0.9-3.2-3c0-0.3,0-0.5,0-0.9c0-0.3,0-0.4-0.1-0.4
		c-0.1,0-0.2,0.1-0.3,0.3c-1.8,2.8-4.6,4.2-8.2,4.2c-4.2,0-6.5-1.8-6.5-4.9c0-4.4,4.7-6.9,14.4-7.5c0.3,0,0.4-0.2,0.4-0.5v-0.4
		c0-3.4-1.5-4.9-5.1-4.9c-1.8,0-3.5,0.4-4.8,1.1c-0.2,0.1-0.3,0.3-0.3,0.5c0,0.2,0,0.4,0,0.6c0,1.5-1,2.4-2.3,2.4
		c-1.2,0-1.9-0.8-1.9-1.9c0-3.1,4.9-5.7,9.7-5.7c5.4,0,7.8,2.4,7.8,7.5c0,2.4-0.4,6.8-0.4,9c0,1,0.4,1.4,1.2,1.4
		c0.5,0,1-0.1,1.7-0.2c0.7-0.1,0.9,0,1,1.2C1893.6,988.9,1893.4,989.1,1892.8,989.2z M1886.4,980.7c0.1-0.3-0.1-0.5-0.4-0.5
		c-6.9,0.3-10.5,1.8-10.5,4.3c0,1.5,1.1,2.4,3.4,2.4C1882.6,986.9,1885.3,984.7,1886.4,980.7z"/>
	<path d="M1918.4,987.1c0,1.3-0.2,1.5-0.9,1.5c-6.2,0.4-12.4,0.4-18.6,0.4c-0.7,0-0.9-0.2-0.9-1.5c0-1.3,0.2-1.5,0.9-1.5
		c2.2,0,4.4,0,6.7,0c0.3,0,0.4-0.1,0.4-0.4c0.1-6.1,0.5-15.9,0.6-19.7c0-0.3-0.1-0.4-0.4-0.4c-2.2,0.1-4.4,0.2-6.6,0.4
		c-0.7,0.1-0.9-0.1-0.9-1.4c-0.1-1.4,0.1-1.5,0.8-1.6c3.1-0.3,6.2-0.5,9.3-0.6c0.8,0,1.4,0.6,1.4,1.4c-0.2,4.3-0.6,15.2-0.7,21.8
		c0,0.3,0.2,0.4,0.5,0.4c2.6-0.1,5.1-0.2,7.6-0.3C1918.2,985.6,1918.4,985.7,1918.4,987.1z"/>
	<path d="M1946.6,987.5c0,1.3-0.1,1.4-0.9,1.6c-1.4,0.2-2.4,0.3-3.3,0.3c-1.9,0-2.8-0.8-2.8-2.8v-0.2c0-0.4-0.3-0.5-0.5-0.2
		c-2.3,2.4-4.8,3.6-7.7,3.6c-4.4,0-6.8-2.4-6.8-6.9c0-3.2,0.3-7.6,0.3-10.3c0-0.3-0.2-0.4-0.4-0.4l-2.3,0c-0.7,0-0.9-0.2-0.9-1.4
		s0.2-1.4,0.9-1.4l5,0c0.6,0,1.2,0.5,1.2,1.2c0,3.5-0.3,8.7-0.3,11.9c0,3,1.3,4.4,4.1,4.4c2.5,0,4.9-1.3,6.9-4
		c0.1-0.2,0.2-0.3,0.2-0.5c0.1-3.2,0.2-7.1,0.3-9.6c0-0.3-0.1-0.4-0.4-0.4l-4,0.1c-0.7,0-0.9-0.1-0.9-1.4s0.2-1.4,0.9-1.4l6.7-0.1
		c0.6,0,1.1,0.5,1.1,1.1c-0.1,4.2-0.4,12-0.4,15.3c0,0.6,0.3,0.9,0.9,0.9c0.5,0,1.2-0.1,2.1-0.3
		C1946.4,986.1,1946.5,986.3,1946.6,987.5z"/>
	<path d="M1953.1,979.8c-0.3,0-0.4,0.1-0.4,0.2c0,4.1,2.9,6.7,7.4,6.7c3,0,5.9-1.2,7.8-3.1c0.5-0.5,0.8-0.5,1.5,0.5
		c0.7,1,0.6,1.3,0.1,1.8c-2.6,2.4-5.9,3.7-9.5,3.7c-6.3,0-10.8-3.7-10.8-9.5c0-6.7,5.5-11.4,11.6-11.4c5.5,0,9.1,3.3,9.1,8.4
		c0,0.3,0,0.6-0.1,1c-0.1,0.8-0.9,1.4-1.7,1.5C1964.9,979.7,1958.8,979.8,1953.1,979.8z M1953.4,976.5c-0.1,0.3,0,0.5,0.4,0.5
		c4.5,0,9.4-0.1,12.4-0.2c0.3,0,0.4-0.1,0.4-0.4c-0.2-3.1-2.2-4.9-5.7-4.9C1957.7,971.5,1954.7,973.3,1953.4,976.5z"/>
</g>
</svg>
