<svg version="1.1" xmlns="http://www.w3.org/2000/svg" viewBox="0 0 1256.908203125 702.220703125" width="1256.908203125" height="702.220703125">
  <!-- svg-source:excalidraw -->
  
  <defs>
    <style>
      @font-face {
        font-family: "Virgil";
        src: url("https://excalidraw.com/Virgil.woff2");
      }
      @font-face {
        font-family: "Cascadia";
        src: url("https://excalidraw.com/Cascadia.woff2");
      }
    </style>
  </defs>
  <rect x="0" y="0" width="1256.908203125" height="702.220703125" fill="#ffffff"></rect><g stroke-linecap="round"><g transform="translate(283.197265625 97.9453125) rotate(0 107.23071641595101 -2.6652396259934505)"><path d="M-0.41 -0.44 C34.87 -0.93, 176.91 -2.65, 212.61 -2.93 M1.58 -1.72 C37.14 -2.58, 179.6 -4.53, 214.87 -4.89" stroke="#000000" stroke-width="1" fill="none"></path></g><g transform="translate(283.197265625 97.9453125) rotate(0 107.23071641595101 -2.6652396259934505)"><path d="M186.08 4.27 C197.97 2.34, 209.97 -1.28, 215.87 -3.52 M187.64 5.87 C195.52 2, 204.9 -1.68, 215.07 -5.43" stroke="#000000" stroke-width="1" fill="none"></path></g><g transform="translate(283.197265625 97.9453125) rotate(0 107.23071641595101 -2.6652396259934505)"><path d="M185.82 -16.25 C197.81 -10.38, 209.91 -6.21, 215.87 -3.52 M187.38 -14.65 C195.23 -11.66, 204.7 -8.47, 215.07 -5.43" stroke="#000000" stroke-width="1" fill="none"></path></g></g><g stroke-linecap="round" transform="translate(40.494140625 14.35546875) rotate(0 118.962890625 97.69921875)"><path d="M-0.91 -1.67 C74.9 -1.6, 150.39 0.35, 236.48 -0.12 M0.28 0.09 C87.74 2.46, 173.29 1.64, 238.57 -0.23 M236.7 0.33 C239.31 69.25, 236.68 138.36, 238.68 196.34 M236.95 -0.1 C240 53.15, 239.81 105.02, 238.69 196.33 M236.32 194.23 C144.49 193.42, 49.43 193.58, 0.94 196.53 M238.64 194.98 C165.54 195.28, 92.05 194.74, 0.05 196.03 M-0.33 195.04 C1.11 125.44, 1.71 56.75, -1.57 0.9 M-0.63 194.52 C-1.44 155.3, -0.05 115.86, 0.52 -0.26" stroke="#000000" stroke-width="1" fill="none"></path></g><g stroke-linecap="round" transform="translate(502.1015625 10) rotate(0 118.962890625 97.69921875)"><path d="M1.25 1.3 C75.77 -2.29, 149.23 -2.99, 237.7 1.63 M-0.79 -0.78 C61.61 2.09, 122.24 0.61, 238.15 0.57 M239.56 -0.57 C238 71.18, 236.85 143.98, 238.98 195.34 M238.34 -0.48 C238.86 53.43, 240.02 106.24, 237.12 195.62 M236.62 194.91 C167.41 194.12, 94.72 196.74, 0.07 196.2 M237.54 194.8 C147.06 195.12, 55.02 195.36, 0.7 195.1 M1.71 194.6 C2.88 134.16, -0.66 75.61, -0.71 -0.71 M-0.01 195.25 C-0.46 119.71, -0.87 43.45, -0.28 -0.41" stroke="#000000" stroke-width="1" fill="none"></path></g><g transform="translate(514.267578125 22.08984375) rotate(0 80.177734375 23.466653963414615)"><text x="0" y="18.466653963414622" font-family="Cascadia, Segoe UI Emoji" font-size="19.55554496951219px" fill="#000000" text-anchor="start" style="white-space: pre;" direction="ltr">Rendered Glyph</text><text x="0" y="41.933307926829244" font-family="Cascadia, Segoe UI Emoji" font-size="19.55554496951219px" fill="#000000" text-anchor="start" style="white-space: pre;" direction="ltr">(bitmap)</text></g><g transform="translate(51.3203125 24.369283536585385) rotate(0 100 25)"><text x="0" y="20" font-family="Cascadia, Segoe UI Emoji" font-size="21.23523246951219px" fill="#000000" text-anchor="start" style="white-space: pre;" direction="ltr">Glyph</text><text x="0" y="45" font-family="Cascadia, Segoe UI Emoji" font-size="21.23523246951219px" fill="#000000" text-anchor="start" style="white-space: pre;" direction="ltr">(control points)</text></g><g stroke-linecap="round" transform="translate(669.427734375 437.44921875) rotate(0 88.560546875 72.673828125)"><path d="M77.74 1.7 C88.95 -0.74, 101.52 -1.42, 112.7 1.03 C123.87 3.47, 135.5 9.88, 144.8 16.39 C154.09 22.91, 162.94 31.22, 168.46 40.1 C173.97 48.97, 177.73 59.67, 177.87 69.66 C178 79.64, 174.12 90.65, 169.26 100 C164.4 109.34, 157.33 118.81, 148.7 125.74 C140.07 132.66, 128.42 138.45, 117.48 141.53 C106.53 144.62, 94.68 145.03, 83.02 144.26 C71.37 143.49, 58.31 141.26, 47.56 136.91 C36.82 132.56, 26.28 126.05, 18.55 118.16 C10.82 110.28, 4.1 99.2, 1.21 89.58 C-1.68 79.95, -0.88 70.3, 1.24 60.41 C3.35 50.53, 6.85 38.74, 13.9 30.28 C20.96 21.82, 27.51 14.06, 43.56 9.67 C59.6 5.28, 94.17 3.14, 110.17 3.93 C126.17 4.71, 140.24 13.19, 139.55 14.36 M155.63 23.41 C164.57 30.31, 172.01 44.06, 175.88 53.57 C179.75 63.08, 180.95 71.31, 178.85 80.46 C176.75 89.62, 169.79 99.85, 163.3 108.49 C156.81 117.14, 149.95 126.06, 139.93 132.32 C129.91 138.58, 115.56 144.24, 103.17 146.06 C90.78 147.89, 76.95 145.68, 65.6 143.29 C54.25 140.9, 43.87 137.51, 35.06 131.72 C26.25 125.94, 18.53 117.11, 12.75 108.57 C6.96 100.03, 1.72 90.21, 0.33 80.49 C-1.05 70.76, 0.09 59.62, 4.44 50.22 C8.78 40.82, 17.87 31.72, 26.42 24.1 C34.97 16.49, 45.04 8.96, 55.72 4.51 C66.41 0.06, 78.84 -2.71, 90.54 -2.6 C102.24 -2.48, 114.85 0.94, 125.93 5.18 C137 9.42, 152.32 19.7, 156.99 22.84 C161.67 25.98, 154.9 23.23, 153.98 24.02" stroke="#000000" stroke-width="1" fill="none"></path></g><g transform="translate(674.427734375 486.123046875) rotate(0 83.5 24)"><text x="83.5" y="19" font-family="Cascadia, Segoe UI Emoji" font-size="20px" fill="#000000" text-anchor="middle" style="white-space: pre;" direction="ltr">Perceptual </text><text x="83.5" y="43" font-family="Cascadia, Segoe UI Emoji" font-size="20px" fill="#000000" text-anchor="middle" style="white-space: pre;" direction="ltr">feedback</text></g><g stroke-linecap="round" transform="translate(10 546.873046875) rotate(0 88.560546875 72.673828125)"><path d="M102.86 -0.37 C114.36 0.11, 127.98 7.21, 137.89 13.02 C147.8 18.83, 156.02 25.93, 162.32 34.48 C168.61 43.03, 173.58 54.71, 175.65 64.33 C177.72 73.96, 178.08 83.03, 174.74 92.23 C171.4 101.43, 163.93 111.61, 155.59 119.54 C147.25 127.48, 135.3 135.56, 124.69 139.85 C114.08 144.14, 103.86 145.49, 91.94 145.29 C80.02 145.08, 64.74 142.33, 53.18 138.63 C41.63 134.93, 30.97 129.92, 22.63 123.11 C14.29 116.3, 7.11 107.21, 3.15 97.79 C-0.81 88.37, -2.27 76.7, -1.14 66.6 C-0.01 56.5, 4.09 46.03, 9.94 37.16 C15.79 28.3, 24.01 19.23, 33.95 13.43 C43.89 7.64, 55.94 3.67, 69.59 2.4 C83.24 1.13, 105.8 4.53, 115.85 5.82 C125.89 7.1, 130.2 9.12, 129.88 10.1 M108.12 3.64 C120.47 4.95, 135.35 8.41, 145.59 13.99 C155.83 19.56, 164.54 28.28, 169.56 37.1 C174.59 45.91, 175.45 57.07, 175.76 66.9 C176.07 76.72, 175.55 86.37, 171.43 96.05 C167.31 105.72, 159.2 117.98, 151.03 124.94 C142.86 131.89, 132.98 134.02, 122.4 137.77 C111.81 141.52, 99.59 147.86, 87.51 147.44 C75.44 147.03, 61.35 139.97, 49.95 135.26 C38.55 130.55, 26.51 126.27, 19.11 119.21 C11.71 112.15, 8.49 102.24, 5.53 92.92 C2.57 83.59, 0.24 72.63, 1.33 63.26 C2.41 53.89, 5.95 44.81, 12.04 36.7 C18.13 28.58, 28.14 20.12, 37.87 14.56 C47.6 9.01, 58.27 5.07, 70.44 3.35 C82.6 1.62, 104.33 3.75, 110.84 4.2 C117.36 4.64, 110.41 4.84, 109.5 6" stroke="#000000" stroke-width="1" fill="none"></path></g><g transform="translate(15 607.546875) rotate(0 83.5 12)"><text x="83.5" y="19" font-family="Cascadia, Segoe UI Emoji" font-size="20px" fill="#000000" text-anchor="middle" style="white-space: pre;" direction="ltr">Symbolic</text></g><g stroke-linecap="round"><g transform="translate(762.365234375 97.79296875) rotate(0 -180.42057888104625 189.28502735511964)"><path d="M0.37 -1.12 C32.95 39.91, 253.36 183.07, 195.88 246.07 C138.41 309.07, -217.49 396.47, -344.49 376.89 C-471.49 357.31, -529.29 169.92, -566.1 128.61" stroke="#000000" stroke-width="1.5" fill="none" stroke-dasharray="8 9"></path></g><g transform="translate(762.365234375 97.79296875) rotate(0 -180.42057888104625 189.28502735511964)"><path d="M-544.82 147.81 C-551.49 142.16, -556.76 134.66, -565.54 129.42" stroke="#000000" stroke-width="1.5" fill="none"></path></g><g transform="translate(762.365234375 97.79296875) rotate(0 -180.42057888104625 189.28502735511964)"><path d="M-562.51 158.22 C-563.29 149.06, -562.69 138.1, -565.54 129.42" stroke="#000000" stroke-width="1.5" fill="none"></path></g></g><g stroke-linecap="round"><g transform="translate(182.509765625 245.48046875) rotate(0 -31.413242864993208 137.7362452205211)"><path d="M-0.75 -0.43 C6.19 41.29, 58.89 205.8, 41.55 250.44 C24.21 295.08, -88.58 312.21, -104.81 267.44 C-121.03 222.67, -63.77 29.15, -55.79 -18.18" stroke="#000000" stroke-width="1.5" fill="none" stroke-dasharray="8 9"></path></g><g transform="translate(182.509765625 245.48046875) rotate(0 -31.413242864993208 137.7362452205211)"><path d="M-52.87 12.76 C-53.42 2.23, -52.47 -5.2, -56.9 -19.4" stroke="#000000" stroke-width="1.5" fill="none"></path></g><g transform="translate(182.509765625 245.48046875) rotate(0 -31.413242864993208 137.7362452205211)"><path d="M-72.86 8.12 C-67.55 -0.92, -60.74 -6.99, -56.9 -19.4" stroke="#000000" stroke-width="1.5" fill="none"></path></g></g><g transform="translate(876.908203125 419.30078125) rotate(0 185 94.5)"><text x="0" y="17" font-family="Cascadia, Segoe UI Emoji" font-size="17.539489379635583px" fill="#000000" text-anchor="start" style="white-space: pre;" direction="ltr">Based on the visual display of</text><text x="0" y="38" font-family="Cascadia, Segoe UI Emoji" font-size="17.539489379635583px" fill="#000000" text-anchor="start" style="white-space: pre;" direction="ltr">the rendered glyph, the designer</text><text x="0" y="59" font-family="Cascadia, Segoe UI Emoji" font-size="17.539489379635583px" fill="#000000" text-anchor="start" style="white-space: pre;" direction="ltr">adjust the control points.</text><text x="0" y="80" font-family="Cascadia, Segoe UI Emoji" font-size="17.539489379635583px" fill="#000000" text-anchor="start" style="white-space: pre;" direction="ltr"></text><text x="0" y="101" font-family="Cascadia, Segoe UI Emoji" font-size="17.539489379635583px" fill="#000000" text-anchor="start" style="white-space: pre;" direction="ltr">This process can occur iteratively, </text><text x="0" y="122" font-family="Cascadia, Segoe UI Emoji" font-size="17.539489379635583px" fill="#000000" text-anchor="start" style="white-space: pre;" direction="ltr">i.e., modify the glyph control </text><text x="0" y="143" font-family="Cascadia, Segoe UI Emoji" font-size="17.539489379635583px" fill="#000000" text-anchor="start" style="white-space: pre;" direction="ltr">points, render it, get visual </text><text x="0" y="164" font-family="Cascadia, Segoe UI Emoji" font-size="17.539489379635583px" fill="#000000" text-anchor="start" style="white-space: pre;" direction="ltr">feedback, modify the control </text><text x="0" y="185" font-family="Cascadia, Segoe UI Emoji" font-size="17.539489379635583px" fill="#000000" text-anchor="start" style="white-space: pre;" direction="ltr">points again ...</text></g></svg>